<?xml version="1.0" encoding="UTF-8" standalone="no"?>
<svg
   width="168"
   height="180"
   viewBox="0 0 168 180"
   fill="none"
   version="1.1"
   id="svg31"
   sodipodi:docname="Group 8.svg"
   inkscape:version="1.2.1 (9c6d41e410, 2022-07-14)"
   xmlns:inkscape="http://www.inkscape.org/namespaces/inkscape"
   xmlns:sodipodi="http://sodipodi.sourceforge.net/DTD/sodipodi-0.dtd"
   xmlns="http://www.w3.org/2000/svg"
   xmlns:svg="http://www.w3.org/2000/svg">
  <sodipodi:namedview
     id="namedview33"
     pagecolor="#505050"
     bordercolor="#eeeeee"
     borderopacity="1"
     inkscape:showpageshadow="0"
     inkscape:pageopacity="0"
     inkscape:pagecheckerboard="0"
     inkscape:deskcolor="#505050"
     showgrid="false"
     inkscape:zoom="4.6555556"
     inkscape:cx="60.465394"
     inkscape:cy="141.65871"
     inkscape:window-width="1920"
     inkscape:window-height="1021"
     inkscape:window-x="0"
     inkscape:window-y="30"
     inkscape:window-maximized="1"
     inkscape:current-layer="svg31" />
  <path
     d="M62.3141 0C49.1357 16.6106 45.1859 24.7943 49.9391 35.3672C54.2483 44.9512 65.3821 49.8356 59.7829 72C68.9797 61.201 76.2857 47.4853 69.0641 36.4219C61.7177 25.1695 57.6941 18.336 62.3141 0ZM98.3141 0C85.1357 16.6106 81.1859 24.7943 85.9391 35.3672C90.2483 44.9512 101.382 49.8356 95.7829 72C104.98 61.201 112.286 47.4853 105.064 36.4219C97.7177 25.1695 93.6941 18.336 98.3141 0ZM134.314 0C121.136 16.6106 117.186 24.7943 121.939 35.3672C126.248 44.9512 137.382 49.8356 131.783 72C140.98 61.201 148.286 47.4853 141.064 36.4219C133.718 25.1695 129.694 18.336 134.314 0Z"
     fill="#E163EC"
     id="path2" />
  <path
     d="M168 120C168 156 144 180 108 180H84C48 180 26.8824 161.212 24.492 132H18C0 132 0 114 0 114V102C0 84 18 84 18 84H24H168V120ZM18 96C12 95.6124 11.8128 102.375 11.8128 102.375V114.375C11.8128 120 18 120 18 120H24L23.88 96.1874L18 96Z"
     fill="#26F46C"
     id="path4"
     style="fill:#28ff9b;fill-opacity:1" />
  <g
     filter="url(#filter0_d_68_9)"
     id="g10">
    <path
       d="M84.2023 108C84.2023 108 51 125.55 51 129.15C51 132.75 80.7557 144 84.2023 144C87.649 144 93.9677 108 93.9677 108"
       stroke="black"
       stroke-width="5"
       stroke-linecap="round"
       id="path6" />
    <path
       d="M107.733 144C107.733 144 140.936 126.45 140.936 122.85C140.936 119.25 111.18 108 107.733 108C104.287 108 97.9678 144 97.9678 144"
       stroke="black"
       stroke-width="5"
       stroke-linecap="round"
       id="path8" />
  </g>
  <defs
     id="defs29">
    <filter
       id="filter0_d_68_9"
       x="44.5"
       y="105.5"
       width="102.936"
       height="49.001"
       filterUnits="userSpaceOnUse"
       color-interpolation-filters="sRGB">
      <feFlood
         flood-opacity="0"
         result="BackgroundImageFix"
         id="feFlood12" />
      <feColorMatrix
         in="SourceAlpha"
         type="matrix"
         values="0 0 0 0 0 0 0 0 0 0 0 0 0 0 0 0 0 0 127 0"
         result="hardAlpha"
         id="feColorMatrix14" />
      <feOffset
         dy="4"
         id="feOffset16" />
      <feGaussianBlur
         stdDeviation="2"
         id="feGaussianBlur18" />
      <feComposite
         in2="hardAlpha"
         operator="out"
         id="feComposite20" />
      <feColorMatrix
         type="matrix"
         values="0 0 0 0 0 0 0 0 0 0 0 0 0 0 0 0 0 0 0.25 0"
         id="feColorMatrix22" />
      <feBlend
         mode="normal"
         in2="BackgroundImageFix"
         result="effect1_dropShadow_68_9"
         id="feBlend24" />
      <feBlend
         mode="normal"
         in="SourceGraphic"
         in2="effect1_dropShadow_68_9"
         result="shape"
         id="feBlend26" />
    </filter>
  </defs>
</svg>
