<?xml version="1.0" standalone="no"?>
<!DOCTYPE svg PUBLIC "-//W3C//DTD SVG 20010904//EN"
 "http://www.w3.org/TR/2001/REC-SVG-20010904/DTD/svg10.dtd">
<svg version="1.0" xmlns="http://www.w3.org/2000/svg"
 width="640.000000pt" height="640.000000pt" viewBox="0 0 640.000000 640.000000"
 preserveAspectRatio="xMidYMid meet">

<g transform="translate(0.000000,640.000000) scale(0.100000,-0.100000)"
fill="#000000" stroke="none">
<path d="M3058 5579 c-113 -9 -277 -47 -398 -91 -427 -156 -777 -515 -923
-948 -159 -470 -90 -964 190 -1359 66 -93 229 -258 323 -327 l80 -59 0 -124 0
-123 -39 -47 c-52 -63 -78 -117 -89 -187 -17 -108 9 -211 73 -289 l34 -42 -28
-34 c-88 -107 -110 -265 -53 -390 26 -58 93 -133 149 -166 49 -28 137 -53 194
-53 35 0 35 0 47 -60 15 -80 63 -178 124 -251 280 -337 807 -269 999 129 17
34 35 89 41 121 l11 58 62 6 c137 13 258 94 314 209 60 126 40 288 -49 397
l-28 33 35 47 c45 58 63 101 73 171 15 109 -15 210 -91 301 l-39 47 0 123 0
124 80 59 c94 69 257 234 323 327 204 288 298 631 268 977 -34 385 -169 682
-436 961 -253 264 -604 430 -980 461 -132 11 -128 11 -267 -1z m340 -214 c275
-41 525 -163 721 -350 276 -264 420 -599 421 -976 0 -272 -76 -515 -230 -731
-75 -105 -224 -251 -340 -334 -47 -33 -90 -71 -97 -84 -8 -16 -13 -70 -13
-149 0 -123 0 -123 -22 -117 -13 3 -80 6 -150 6 l-128 0 0 338 0 338 169 169
c106 106 172 180 176 198 16 65 -31 127 -96 127 -37 0 -50 -10 -231 -185 -106
-101 -198 -195 -205 -207 -9 -17 -12 -116 -13 -400 l0 -378 -160 0 -160 0 0
378 0 379 -29 39 c-34 45 -324 333 -361 358 -38 25 -85 20 -121 -12 -26 -23
-32 -36 -32 -71 0 -42 3 -46 172 -215 l171 -171 0 -342 0 -342 -150 -3 -150
-3 0 120 c0 75 -5 129 -13 145 -7 13 -50 51 -97 84 -120 85 -295 262 -365 369
-140 216 -205 436 -205 696 0 154 19 276 64 413 157 481 573 835 1069 913 113
18 288 18 405 0z m517 -2968 c57 -32 87 -88 82 -155 -4 -59 -25 -94 -77 -129
l-33 -23 -687 0 -687 0 -33 23 c-58 39 -75 71 -75 140 0 75 27 120 89 148 39
18 79 19 711 19 l670 0 40 -23z m0 -540 c57 -32 87 -88 82 -155 -4 -59 -25
-94 -77 -129 l-33 -23 -687 0 -687 0 -33 23 c-50 33 -72 70 -78 125 -7 78 44
158 113 175 11 2 322 5 690 6 l670 1 40 -23z m-337 -554 c-29 -105 -125 -215
-225 -254 -83 -34 -223 -34 -306 0 -100 39 -196 149 -225 254 l-10 37 388 0
388 0 -10 -37z"/>
</g>
</svg>
